# MagicaVoxel @ Ephtracy

# group
o 

# material
mtllib door.mtl
usemtl palette

# normals
vn -1 0 0
vn 1 0 0
vn 0 0 1
vn 0 0 -1
vn 0 -1 0
vn 0 1 0

# texcoords
vt 0.197266 0.5
vt 0.224609 0.5
vt 0.251953 0.5

# verts
v 0 2 -0.3
v 0 2 -0.5
v 0 8 -0.3
v 0 8 -0.5
v 2.9 4.9 -0.2
v 2.9 4.9 -0.3
v 2.9 5.1 -0.2
v 2.9 5.1 -0.3
v 3 4.8 -0.2
v 3 4.8 -0.3
v 3 4.9 -0.1
v 3 4.9 -0.2
v 3 4.9 -0.3
v 3 5.1 -0.1
v 3 5.1 -0.2
v 3 5.1 -0.3
v 3 5.2 -0.2
v 3 5.2 -0.3
v 3.1 4.7 -0.2
v 3.1 4.7 -0.3
v 3.1 4.8 -0.1
v 3.1 4.8 -0.2
v 3.1 4.8 -0.3
v 3.1 4.9 -0.1
v 3.1 4.9 -0.2
v 3.1 5.1 -0.1
v 3.1 5.1 -0.2
v 3.1 5.2 -0.1
v 3.1 5.2 -0.2
v 3.1 5.2 -0.3
v 3.1 5.3 -0.2
v 3.1 5.3 -0.3
v 3.3 4.7 -0.2
v 3.3 4.7 -0.3
v 3.3 4.8 -0.1
v 3.3 4.8 -0.2
v 3.3 4.8 -0.3
v 3.3 4.9 -0.1
v 3.3 4.9 -0.2
v 3.3 5.1 -0.1
v 3.3 5.1 -0.2
v 3.3 5.2 -0.1
v 3.3 5.2 -0.2
v 3.3 5.2 -0.3
v 3.3 5.3 -0.2
v 3.3 5.3 -0.3
v 3.4 4.8 -0.2
v 3.4 4.8 -0.3
v 3.4 4.9 -0.1
v 3.4 4.9 -0.2
v 3.4 4.9 -0.3
v 3.4 5.1 -0.1
v 3.4 5.1 -0.2
v 3.4 5.1 -0.3
v 3.4 5.2 -0.2
v 3.4 5.2 -0.3
v 3.5 4.9 -0.2
v 3.5 4.9 -0.3
v 3.5 5.1 -0.2
v 3.5 5.1 -0.3
v 4 2 -0.3
v 4 2 -0.5
v 4 8 -0.3
v 4 8 -0.5
v 3 4.9 -0.1
v 3 5.1 -0.1
v 3.1 4.8 -0.1
v 3.1 4.9 -0.1
v 3.1 5.1 -0.1
v 3.1 5.2 -0.1
v 3.3 4.8 -0.1
v 3.3 4.9 -0.1
v 3.3 5.1 -0.1
v 3.3 5.2 -0.1
v 3.4 4.9 -0.1
v 3.4 5.1 -0.1
v 2.9 4.9 -0.2
v 2.9 5.1 -0.2
v 3 4.8 -0.2
v 3 4.9 -0.2
v 3 5.1 -0.2
v 3 5.2 -0.2
v 3.1 4.7 -0.2
v 3.1 4.8 -0.2
v 3.1 4.9 -0.2
v 3.1 5.1 -0.2
v 3.1 5.2 -0.2
v 3.1 5.3 -0.2
v 3.3 4.7 -0.2
v 3.3 4.8 -0.2
v 3.3 4.9 -0.2
v 3.3 5.1 -0.2
v 3.3 5.2 -0.2
v 3.3 5.3 -0.2
v 3.4 4.8 -0.2
v 3.4 4.9 -0.2
v 3.4 5.1 -0.2
v 3.4 5.2 -0.2
v 3.5 4.9 -0.2
v 3.5 5.1 -0.2
v 0 2 -0.3
v 0 8 -0.3
v 0.1 2.3 -0.3
v 0.1 7.7 -0.3
v 0.2 2.2 -0.3
v 0.2 2.3 -0.3
v 0.2 7.7 -0.3
v 0.2 7.8 -0.3
v 0.3 2.1 -0.3
v 0.3 2.2 -0.3
v 0.3 7.8 -0.3
v 0.3 7.9 -0.3
v 2.9 4.9 -0.3
v 2.9 5.1 -0.3
v 3 4.8 -0.3
v 3 4.9 -0.3
v 3 5.1 -0.3
v 3 5.2 -0.3
v 3.1 4.7 -0.3
v 3.1 4.8 -0.3
v 3.1 5.2 -0.3
v 3.1 5.3 -0.3
v 3.3 4.7 -0.3
v 3.3 4.8 -0.3
v 3.3 5.2 -0.3
v 3.3 5.3 -0.3
v 3.4 4.8 -0.3
v 3.4 4.9 -0.3
v 3.4 5.1 -0.3
v 3.4 5.2 -0.3
v 3.5 4.9 -0.3
v 3.5 5.1 -0.3
v 3.7 2.1 -0.3
v 3.7 2.2 -0.3
v 3.7 7.8 -0.3
v 3.7 7.9 -0.3
v 3.8 2.2 -0.3
v 3.8 2.3 -0.3
v 3.8 7.7 -0.3
v 3.8 7.8 -0.3
v 3.9 2.3 -0.3
v 3.9 7.7 -0.3
v 4 2 -0.3
v 4 8 -0.3
v 0 2 -0.5
v 0 8 -0.5
v 0.1 2.2 -0.5
v 0.1 7.7 -0.5
v 0.2 2.1 -0.5
v 0.2 2.2 -0.5
v 0.2 7.7 -0.5
v 0.2 7.8 -0.5
v 0.3 7.8 -0.5
v 0.3 7.9 -0.5
v 3.7 2.1 -0.5
v 3.7 2.2 -0.5
v 3.7 7.8 -0.5
v 3.7 7.9 -0.5
v 3.8 2.2 -0.5
v 3.8 2.3 -0.5
v 3.8 7.7 -0.5
v 3.8 7.8 -0.5
v 3.9 2.3 -0.5
v 3.9 7.7 -0.5
v 4 2 -0.5
v 4 8 -0.5
v 0 2 -0.3
v 4 2 -0.3
v 0 2 -0.5
v 4 2 -0.5
v 3.1 4.7 -0.2
v 3.3 4.7 -0.2
v 3.1 4.7 -0.3
v 3.3 4.7 -0.3
v 3.1 4.8 -0.1
v 3.3 4.8 -0.1
v 3 4.8 -0.2
v 3.1 4.8 -0.2
v 3.3 4.8 -0.2
v 3.4 4.8 -0.2
v 3 4.8 -0.3
v 3.1 4.8 -0.3
v 3.3 4.8 -0.3
v 3.4 4.8 -0.3
v 3 4.9 -0.1
v 3.1 4.9 -0.1
v 3.3 4.9 -0.1
v 3.4 4.9 -0.1
v 2.9 4.9 -0.2
v 3 4.9 -0.2
v 3.1 4.9 -0.2
v 3.3 4.9 -0.2
v 3.4 4.9 -0.2
v 3.5 4.9 -0.2
v 2.9 4.9 -0.3
v 3 4.9 -0.3
v 3.4 4.9 -0.3
v 3.5 4.9 -0.3
v 3 5.1 -0.1
v 3.1 5.1 -0.1
v 3.3 5.1 -0.1
v 3.4 5.1 -0.1
v 2.9 5.1 -0.2
v 3 5.1 -0.2
v 3.1 5.1 -0.2
v 3.3 5.1 -0.2
v 3.4 5.1 -0.2
v 3.5 5.1 -0.2
v 2.9 5.1 -0.3
v 3 5.1 -0.3
v 3.4 5.1 -0.3
v 3.5 5.1 -0.3
v 3.1 5.2 -0.1
v 3.3 5.2 -0.1
v 3 5.2 -0.2
v 3.1 5.2 -0.2
v 3.3 5.2 -0.2
v 3.4 5.2 -0.2
v 3 5.2 -0.3
v 3.1 5.2 -0.3
v 3.3 5.2 -0.3
v 3.4 5.2 -0.3
v 3.1 5.3 -0.2
v 3.3 5.3 -0.2
v 3.1 5.3 -0.3
v 3.3 5.3 -0.3
v 0 8 -0.3
v 4 8 -0.3
v 0 8 -0.5
v 4 8 -0.5

# faces
f 3/2/1 2/2/1 1/2/1
f 4/2/1 2/2/1 3/2/1
f 7/3/1 6/3/1 5/3/1
f 8/3/1 6/3/1 7/3/1
f 12/3/1 10/3/1 9/3/1
f 13/3/1 10/3/1 12/3/1
f 14/3/1 12/3/1 11/3/1
f 15/3/1 12/3/1 14/3/1
f 17/3/1 16/3/1 15/3/1
f 18/3/1 16/3/1 17/3/1
f 22/3/1 20/3/1 19/3/1
f 23/3/1 20/3/1 22/3/1
f 24/3/1 22/3/1 21/3/1
f 25/3/1 22/3/1 24/3/1
f 28/3/1 27/3/1 26/3/1
f 29/3/1 27/3/1 28/3/1
f 31/3/1 30/3/1 29/3/1
f 32/3/1 30/3/1 31/3/1
f 33/3/2 34/3/2 36/3/2
f 36/3/2 34/3/2 37/3/2
f 35/3/2 36/3/2 38/3/2
f 38/3/2 36/3/2 39/3/2
f 40/3/2 41/3/2 42/3/2
f 42/3/2 41/3/2 43/3/2
f 43/3/2 44/3/2 45/3/2
f 45/3/2 44/3/2 46/3/2
f 47/3/2 48/3/2 50/3/2
f 50/3/2 48/3/2 51/3/2
f 49/3/2 50/3/2 52/3/2
f 52/3/2 50/3/2 53/3/2
f 53/3/2 54/3/2 55/3/2
f 55/3/2 54/3/2 56/3/2
f 57/3/2 58/3/2 59/3/2
f 59/3/2 58/3/2 60/3/2
f 61/2/2 62/2/2 63/2/2
f 63/2/2 62/2/2 64/2/2
f 68/3/3 66/3/3 65/3/3
f 69/3/3 66/3/3 68/3/3
f 71/3/3 68/3/3 67/3/3
f 71/3/3 70/3/3 69/3/3
f 71/3/3 69/3/3 68/3/3
f 72/3/3 70/3/3 71/3/3
f 73/3/3 70/3/3 72/3/3
f 74/3/3 70/3/3 73/3/3
f 75/3/3 73/3/3 72/3/3
f 76/3/3 73/3/3 75/3/3
f 80/3/3 78/3/3 77/3/3
f 81/3/3 78/3/3 80/3/3
f 84/3/3 80/3/3 79/3/3
f 85/3/3 80/3/3 84/3/3
f 86/3/3 82/3/3 81/3/3
f 87/3/3 82/3/3 86/3/3
f 89/3/3 84/3/3 83/3/3
f 90/3/3 84/3/3 89/3/3
f 93/3/3 88/3/3 87/3/3
f 94/3/3 88/3/3 93/3/3
f 95/3/3 91/3/3 90/3/3
f 96/3/3 91/3/3 95/3/3
f 97/3/3 93/3/3 92/3/3
f 98/3/3 93/3/3 97/3/3
f 99/3/3 97/3/3 96/3/3
f 100/3/3 97/3/3 99/3/3
f 103/2/3 102/2/3 101/2/3
f 104/2/3 102/2/3 103/2/3
f 105/2/3 103/2/3 101/2/3
f 106/1/3 104/1/3 103/1/3
f 106/2/3 103/2/3 105/2/3
f 107/2/3 102/2/3 104/2/3
f 107/1/3 104/1/3 106/1/3
f 108/2/3 102/2/3 107/2/3
f 109/2/3 105/2/3 101/2/3
f 110/1/3 106/1/3 105/1/3
f 110/2/3 105/2/3 109/2/3
f 110/1/3 107/1/3 106/1/3
f 110/1/3 108/1/3 107/1/3
f 111/2/3 102/2/3 108/2/3
f 111/1/3 108/1/3 110/1/3
f 112/2/3 102/2/3 111/2/3
f 113/1/3 110/1/3 109/1/3
f 113/1/3 111/1/3 110/1/3
f 113/1/3 112/1/3 111/1/3
f 114/1/3 112/1/3 113/1/3
f 115/1/3 113/1/3 109/1/3
f 116/1/3 113/1/3 115/1/3
f 117/1/3 112/1/3 114/1/3
f 118/1/3 112/1/3 117/1/3
f 119/1/3 115/1/3 109/1/3
f 120/1/3 115/1/3 119/1/3
f 121/1/3 112/1/3 118/1/3
f 122/1/3 112/1/3 121/1/3
f 123/1/3 119/1/3 109/1/3
f 126/1/3 112/1/3 122/1/3
f 127/1/3 124/1/3 123/1/3
f 130/1/3 126/1/3 125/1/3
f 131/1/3 128/1/3 127/1/3
f 132/1/3 130/1/3 129/1/3
f 133/2/3 109/2/3 101/2/3
f 133/1/3 132/1/3 131/1/3
f 133/1/3 131/1/3 127/1/3
f 133/1/3 123/1/3 109/1/3
f 133/1/3 127/1/3 123/1/3
f 134/1/3 132/1/3 133/1/3
f 135/1/3 130/1/3 132/1/3
f 135/1/3 132/1/3 134/1/3
f 135/1/3 126/1/3 130/1/3
f 135/1/3 112/1/3 126/1/3
f 136/2/3 102/2/3 112/2/3
f 136/1/3 112/1/3 135/1/3
f 137/2/3 134/2/3 133/2/3
f 137/1/3 135/1/3 134/1/3
f 138/1/3 135/1/3 137/1/3
f 139/1/3 135/1/3 138/1/3
f 140/2/3 136/2/3 135/2/3
f 140/1/3 135/1/3 139/1/3
f 141/1/3 139/1/3 138/1/3
f 141/2/3 138/2/3 137/2/3
f 142/2/3 140/2/3 139/2/3
f 142/1/3 139/1/3 141/1/3
f 143/2/3 133/2/3 101/2/3
f 143/2/3 137/2/3 133/2/3
f 143/2/3 142/2/3 141/2/3
f 143/2/3 141/2/3 137/2/3
f 144/2/3 102/2/3 136/2/3
f 144/2/3 142/2/3 143/2/3
f 144/2/3 136/2/3 140/2/3
f 144/2/3 140/2/3 142/2/3
f 145/2/4 146/2/4 147/2/4
f 147/2/4 146/2/4 148/2/4
f 145/2/4 147/2/4 149/2/4
f 147/1/4 148/1/4 150/1/4
f 149/2/4 147/2/4 150/2/4
f 148/2/4 146/2/4 151/2/4
f 150/1/4 148/1/4 151/1/4
f 151/2/4 146/2/4 152/2/4
f 149/1/4 150/1/4 153/1/4
f 152/2/4 146/2/4 153/2/4
f 151/1/4 152/1/4 153/1/4
f 150/1/4 151/1/4 153/1/4
f 153/2/4 146/2/4 154/2/4
f 145/2/4 149/2/4 155/2/4
f 149/1/4 153/1/4 155/1/4
f 153/1/4 154/1/4 155/1/4
f 155/1/4 154/1/4 156/1/4
f 156/1/4 154/1/4 157/1/4
f 154/2/4 146/2/4 158/2/4
f 157/1/4 154/1/4 158/1/4
f 156/1/4 157/1/4 159/1/4
f 155/2/4 156/2/4 159/2/4
f 159/1/4 157/1/4 160/1/4
f 160/1/4 157/1/4 161/1/4
f 157/2/4 158/2/4 162/2/4
f 161/1/4 157/1/4 162/1/4
f 160/1/4 161/1/4 163/1/4
f 159/2/4 160/2/4 163/2/4
f 161/2/4 162/2/4 164/2/4
f 163/1/4 161/1/4 164/1/4
f 145/2/4 155/2/4 165/2/4
f 155/2/4 159/2/4 165/2/4
f 163/2/4 164/2/4 165/2/4
f 159/2/4 163/2/4 165/2/4
f 158/2/4 146/2/4 166/2/4
f 165/2/4 164/2/4 166/2/4
f 164/2/4 162/2/4 166/2/4
f 162/2/4 158/2/4 166/2/4
f 169/2/5 168/2/5 167/2/5
f 170/2/5 168/2/5 169/2/5
f 173/3/5 172/3/5 171/3/5
f 174/3/5 172/3/5 173/3/5
f 178/3/5 176/3/5 175/3/5
f 179/3/5 176/3/5 178/3/5
f 181/3/5 178/3/5 177/3/5
f 182/3/5 178/3/5 181/3/5
f 183/3/5 180/3/5 179/3/5
f 184/3/5 180/3/5 183/3/5
f 190/3/5 186/3/5 185/3/5
f 191/3/5 186/3/5 190/3/5
f 192/3/5 188/3/5 187/3/5
f 193/3/5 188/3/5 192/3/5
f 195/3/5 190/3/5 189/3/5
f 196/3/5 190/3/5 195/3/5
f 197/3/5 194/3/5 193/3/5
f 198/3/5 194/3/5 197/3/5
f 199/3/6 200/3/6 204/3/6
f 204/3/6 200/3/6 205/3/6
f 201/3/6 202/3/6 206/3/6
f 206/3/6 202/3/6 207/3/6
f 203/3/6 204/3/6 209/3/6
f 209/3/6 204/3/6 210/3/6
f 207/3/6 208/3/6 211/3/6
f 211/3/6 208/3/6 212/3/6
f 213/3/6 214/3/6 216/3/6
f 216/3/6 214/3/6 217/3/6
f 215/3/6 216/3/6 219/3/6
f 219/3/6 216/3/6 220/3/6
f 217/3/6 218/3/6 221/3/6
f 221/3/6 218/3/6 222/3/6
f 223/3/6 224/3/6 225/3/6
f 225/3/6 224/3/6 226/3/6
f 227/2/6 228/2/6 229/2/6
f 229/2/6 228/2/6 230/2/6
