# MagicaVoxel @ Ephtracy

# group
o 

# material
mtllib refrigerator.mtl
usemtl palette

# normals
vn -1 0 0
vn 1 0 0
vn 0 0 1
vn 0 0 -1
vn 0 -1 0
vn 0 1 0

# texcoords
vt 0.958984 0.5
vt 0.966797 0.5
vt 0.974609 0.5
vt 0.994141 0.5

# verts
v -1.1 0.2 -0.1
v -1.1 0.2 -1.6
v -1.1 2.8 -0.1
v -1.1 2.8 -1.6
v -1.1 2.9 -0.1
v -1.1 2.9 -1.6
v -1.1 3.9 -0.1
v -1.1 3.9 -1.6
v -1 0 0
v -1 0 -0.2
v -1 0 -1.5
v -1 0 -1.7
v -1 0.1 0
v -1 0.1 -0.2
v -1 0.1 -1.5
v -1 0.1 -1.7
v -1 0.2 0
v -1 0.2 -0.1
v -1 0.2 -1.6
v -1 0.2 -1.7
v -1 2.8 -0.1
v -1 2.8 -1.6
v -1 2.9 -0.1
v -1 2.9 -1.6
v -1 3.9 0
v -1 3.9 -0.1
v -1 3.9 -1.6
v -1 3.9 -1.7
v -1 4 -0.1
v -1 4 -1.6
v -0.9 0.3 0.1
v -0.9 0.3 0
v -0.9 2.8 0.1
v -0.9 2.8 0
v -0.9 2.9 0.1
v -0.9 2.9 0
v -0.9 3.9 0.1
v -0.9 3.9 0
v -0.9 3.9 -0.1
v -0.9 3.9 -1.6
v -0.9 3.9 -1.7
v -0.9 4 0
v -0.9 4 -0.1
v -0.9 4 -1.6
v -0.9 4 -1.7
v -0.8 1.6 0.2
v -0.8 1.6 0.1
v -0.8 2.5 0.2
v -0.8 2.5 0.1
v -0.8 3.1 0.2
v -0.8 3.1 0.1
v -0.8 3.8 0.2
v -0.8 3.8 0.1
v 0.7 2.6 0.1
v 0.7 2.6 0
v 0.7 2.7 0.1
v 0.7 2.7 0
v 0.7 2.7 -0.1
v 0.7 2.8 0
v 0.7 2.8 -0.1
v 0.8 0 0
v 0.8 0 -0.2
v 0.8 0 -1.5
v 0.8 0 -1.7
v 0.8 0.1 0
v 0.8 0.1 -0.2
v 0.8 0.1 -1.5
v 0.8 0.1 -1.7
v 0.8 2.7 0.1
v 0.8 2.7 0
v 0.8 2.8 0.1
v 0.8 2.8 0
v -0.8 0 0
v -0.8 0 -0.2
v -0.8 0 -1.5
v -0.8 0 -1.7
v -0.8 0.1 0
v -0.8 0.1 -0.2
v -0.8 0.1 -1.5
v -0.8 0.1 -1.7
v -0.8 2.7 0.1
v -0.8 2.7 0
v -0.8 2.8 0.1
v -0.8 2.8 0
v -0.7 2.6 0.1
v -0.7 2.6 0
v -0.7 2.7 0.1
v -0.7 2.7 0
v -0.7 2.7 -0.1
v -0.7 2.8 0
v -0.7 2.8 -0.1
v -0.6 1.6 0.2
v -0.6 1.6 0.1
v -0.6 2.5 0.2
v -0.6 2.5 0.1
v -0.6 3.1 0.2
v -0.6 3.1 0.1
v -0.6 3.8 0.2
v -0.6 3.8 0.1
v 0.9 0.3 0.1
v 0.9 0.3 0
v 0.9 2.8 0.1
v 0.9 2.8 0
v 0.9 2.9 0.1
v 0.9 2.9 0
v 0.9 3.9 0.1
v 0.9 3.9 0
v 0.9 3.9 -0.1
v 0.9 3.9 -1.6
v 0.9 3.9 -1.7
v 0.9 4 0
v 0.9 4 -0.1
v 0.9 4 -1.6
v 0.9 4 -1.7
v 1 0 0
v 1 0 -0.2
v 1 0 -1.5
v 1 0 -1.7
v 1 0.1 0
v 1 0.1 -0.2
v 1 0.1 -1.5
v 1 0.1 -1.7
v 1 0.2 0
v 1 0.2 -0.1
v 1 0.2 -1.6
v 1 0.2 -1.7
v 1 2.8 -0.1
v 1 2.8 -1.6
v 1 2.9 -0.1
v 1 2.9 -1.6
v 1 3.9 0
v 1 3.9 -0.1
v 1 3.9 -1.6
v 1 3.9 -1.7
v 1 4 -0.1
v 1 4 -1.6
v 1.1 0.2 -0.1
v 1.1 0.2 -1.6
v 1.1 2.8 -0.1
v 1.1 2.8 -1.6
v 1.1 2.9 -0.1
v 1.1 2.9 -1.6
v 1.1 3.9 -0.1
v 1.1 3.9 -1.6
v -0.8 1.6 0.2
v -0.8 2.5 0.2
v -0.8 3.1 0.2
v -0.8 3.8 0.2
v -0.6 1.6 0.2
v -0.6 2.5 0.2
v -0.6 3.1 0.2
v -0.6 3.8 0.2
v -0.9 0.3 0.1
v -0.9 2.8 0.1
v -0.9 2.9 0.1
v -0.9 3.9 0.1
v -0.8 1.6 0.1
v -0.8 2.5 0.1
v -0.8 2.7 0.1
v -0.8 2.8 0.1
v -0.8 3.1 0.1
v -0.8 3.8 0.1
v -0.7 2.6 0.1
v -0.7 2.7 0.1
v -0.6 1.6 0.1
v -0.6 2.5 0.1
v -0.6 3.1 0.1
v -0.6 3.8 0.1
v 0.7 2.6 0.1
v 0.7 2.7 0.1
v 0.8 2.7 0.1
v 0.8 2.8 0.1
v 0.9 0.3 0.1
v 0.9 2.8 0.1
v 0.9 2.9 0.1
v 0.9 3.9 0.1
v -1 0 0
v -1 0.1 0
v -1 0.2 0
v -1 3.9 0
v -0.9 0.3 0
v -0.9 2.8 0
v -0.9 2.9 0
v -0.9 3.9 0
v -0.9 4 0
v -0.8 0 0
v -0.8 0.1 0
v -0.8 2.7 0
v -0.8 2.8 0
v -0.7 2.6 0
v -0.7 2.7 0
v -0.7 2.8 0
v 0.7 2.6 0
v 0.7 2.7 0
v 0.7 2.8 0
v 0.8 0 0
v 0.8 0.1 0
v 0.8 2.7 0
v 0.8 2.8 0
v 0.9 0.3 0
v 0.9 2.8 0
v 0.9 2.9 0
v 0.9 3.9 0
v 0.9 4 0
v 1 0 0
v 1 0.1 0
v 1 0.2 0
v 1 3.9 0
v -1.1 0.2 -0.1
v -1.1 2.8 -0.1
v -1.1 2.9 -0.1
v -1.1 3.9 -0.1
v -1 0.2 -0.1
v -1 2.8 -0.1
v -1 2.9 -0.1
v -1 3.9 -0.1
v -1 4 -0.1
v -0.9 3.9 -0.1
v -0.9 4 -0.1
v -0.7 2.7 -0.1
v -0.7 2.8 -0.1
v 0.7 2.7 -0.1
v 0.7 2.8 -0.1
v 0.9 3.9 -0.1
v 0.9 4 -0.1
v 1 0.2 -0.1
v 1 2.8 -0.1
v 1 2.9 -0.1
v 1 3.9 -0.1
v 1 4 -0.1
v 1.1 0.2 -0.1
v 1.1 2.8 -0.1
v 1.1 2.9 -0.1
v 1.1 3.9 -0.1
v -1 0 -1.5
v -1 0.1 -1.5
v -0.8 0 -1.5
v -0.8 0.1 -1.5
v 0.8 0 -1.5
v 0.8 0.1 -1.5
v 1 0 -1.5
v 1 0.1 -1.5
v -1 0 -0.2
v -1 0.1 -0.2
v -0.8 0 -0.2
v -0.8 0.1 -0.2
v 0.8 0 -0.2
v 0.8 0.1 -0.2
v 1 0 -0.2
v 1 0.1 -0.2
v -1.1 0.2 -1.6
v -1.1 2.8 -1.6
v -1.1 2.9 -1.6
v -1.1 3.9 -1.6
v -1 0.2 -1.6
v -1 2.8 -1.6
v -1 2.9 -1.6
v -1 3.9 -1.6
v -1 4 -1.6
v -0.9 3.9 -1.6
v -0.9 4 -1.6
v 0.9 3.9 -1.6
v 0.9 4 -1.6
v 1 0.2 -1.6
v 1 2.8 -1.6
v 1 2.9 -1.6
v 1 3.9 -1.6
v 1 4 -1.6
v 1.1 0.2 -1.6
v 1.1 2.8 -1.6
v 1.1 2.9 -1.6
v 1.1 3.9 -1.6
v -1 0 -1.7
v -1 0.1 -1.7
v -1 0.2 -1.7
v -1 3.9 -1.7
v -0.9 0.2 -1.7
v -0.9 3.9 -1.7
v -0.9 4 -1.7
v -0.8 0 -1.7
v -0.8 0.1 -1.7
v 0.8 0 -1.7
v 0.8 0.1 -1.7
v 0.9 0.2 -1.7
v 0.9 3.9 -1.7
v 0.9 4 -1.7
v 1 0 -1.7
v 1 0.1 -1.7
v 1 0.2 -1.7
v 1 3.9 -1.7
v -1 0 0
v -0.8 0 0
v 0.8 0 0
v 1 0 0
v -1 0 -0.2
v -0.8 0 -0.2
v 0.8 0 -0.2
v 1 0 -0.2
v -1 0 -1.5
v -0.8 0 -1.5
v 0.8 0 -1.5
v 1 0 -1.5
v -1 0 -1.7
v -0.8 0 -1.7
v 0.8 0 -1.7
v 1 0 -1.7
v -0.8 0.1 0
v 0.8 0.1 0
v -1 0.1 -0.2
v -0.8 0.1 -0.2
v 0.8 0.1 -0.2
v 1 0.1 -0.2
v -1 0.1 -1.5
v -0.8 0.1 -1.5
v 0.8 0.1 -1.5
v 1 0.1 -1.5
v -0.8 0.1 -1.7
v 0.8 0.1 -1.7
v -1.1 0.2 -0.1
v -1 0.2 -0.1
v 1 0.2 -0.1
v 1.1 0.2 -0.1
v -1.1 0.2 -1.6
v -1 0.2 -1.6
v 1 0.2 -1.6
v 1.1 0.2 -1.6
v -0.9 0.3 0.1
v 0.9 0.3 0.1
v -0.9 0.3 0
v 0.9 0.3 0
v -0.8 1.6 0.2
v -0.6 1.6 0.2
v -0.8 1.6 0.1
v -0.6 1.6 0.1
v -0.7 2.8 0
v 0.7 2.8 0
v -0.7 2.8 -0.1
v 0.7 2.8 -0.1
v -0.9 2.9 0.1
v 0.9 2.9 0.1
v -0.9 2.9 0
v 0.9 2.9 0
v -1.1 2.9 -0.1
v -1 2.9 -0.1
v 1 2.9 -0.1
v 1.1 2.9 -0.1
v -1.1 2.9 -1.6
v -1 2.9 -1.6
v 1 2.9 -1.6
v 1.1 2.9 -1.6
v -0.8 3.1 0.2
v -0.6 3.1 0.2
v -0.8 3.1 0.1
v -0.6 3.1 0.1
v -0.8 2.5 0.2
v -0.6 2.5 0.2
v -0.8 2.5 0.1
v -0.6 2.5 0.1
v -0.7 2.6 0.1
v 0.7 2.6 0.1
v -0.7 2.6 0
v 0.7 2.6 0
v -0.8 2.7 0.1
v -0.7 2.7 0.1
v 0.7 2.7 0.1
v 0.8 2.7 0.1
v -0.8 2.7 0
v -0.7 2.7 0
v 0.7 2.7 0
v 0.8 2.7 0
v -0.7 2.7 -0.1
v 0.7 2.7 -0.1
v -0.9 2.8 0.1
v -0.8 2.8 0.1
v 0.8 2.8 0.1
v 0.9 2.8 0.1
v -0.9 2.8 0
v -0.8 2.8 0
v 0.8 2.8 0
v 0.9 2.8 0
v -1.1 2.8 -0.1
v -1 2.8 -0.1
v 1 2.8 -0.1
v 1.1 2.8 -0.1
v -1.1 2.8 -1.6
v -1 2.8 -1.6
v 1 2.8 -1.6
v 1.1 2.8 -1.6
v -0.8 3.8 0.2
v -0.6 3.8 0.2
v -0.8 3.8 0.1
v -0.6 3.8 0.1
v -0.9 3.9 0.1
v 0.9 3.9 0.1
v -1 3.9 0
v -0.9 3.9 0
v 0.9 3.9 0
v 1 3.9 0
v -1.1 3.9 -0.1
v -1 3.9 -0.1
v -0.9 3.9 -0.1
v 0.9 3.9 -0.1
v 1 3.9 -0.1
v 1.1 3.9 -0.1
v -1.1 3.9 -1.6
v -1 3.9 -1.6
v -0.9 3.9 -1.6
v 0.9 3.9 -1.6
v 1 3.9 -1.6
v 1.1 3.9 -1.6
v -1 3.9 -1.7
v -0.9 3.9 -1.7
v 0.9 3.9 -1.7
v 1 3.9 -1.7
v -0.9 4 0
v 0.9 4 0
v -1 4 -0.1
v -0.9 4 -0.1
v 0.9 4 -0.1
v 1 4 -0.1
v -1 4 -1.6
v -0.9 4 -1.6
v 0.9 4 -1.6
v 1 4 -1.6
v -0.9 4 -1.7
v 0.9 4 -1.7

# faces
f 3/1/1 2/1/1 1/1/1
f 4/1/1 2/1/1 3/1/1
f 7/1/1 6/1/1 5/1/1
f 8/1/1 6/1/1 7/1/1
f 13/4/1 10/4/1 9/4/1
f 14/4/1 10/4/1 13/4/1
f 15/4/1 12/4/1 11/4/1
f 16/4/1 12/4/1 15/4/1
f 17/1/1 14/1/1 13/1/1
f 17/1/1 15/1/1 14/1/1
f 17/1/1 16/1/1 15/1/1
f 18/1/1 16/1/1 17/1/1
f 19/1/1 16/1/1 18/1/1
f 20/1/1 16/1/1 19/1/1
f 21/3/1 18/3/1 17/3/1
f 22/3/1 20/3/1 19/3/1
f 23/3/1 21/3/1 17/3/1
f 23/3/1 22/3/1 21/3/1
f 24/3/1 20/3/1 22/3/1
f 24/3/1 22/3/1 23/3/1
f 25/3/1 23/3/1 17/3/1
f 26/3/1 23/3/1 25/3/1
f 27/3/1 20/3/1 24/3/1
f 28/3/1 20/3/1 27/3/1
f 29/3/1 27/3/1 26/3/1
f 30/3/1 27/3/1 29/3/1
f 33/1/1 32/1/1 31/1/1
f 34/1/1 32/1/1 33/1/1
f 37/1/1 36/1/1 35/1/1
f 38/1/1 36/1/1 37/1/1
f 42/3/1 39/3/1 38/3/1
f 43/3/1 39/3/1 42/3/1
f 44/3/1 41/3/1 40/3/1
f 45/3/1 41/3/1 44/3/1
f 48/2/1 47/2/1 46/2/1
f 49/2/1 47/2/1 48/2/1
f 52/2/1 51/2/1 50/2/1
f 53/2/1 51/2/1 52/2/1
f 56/1/1 55/1/1 54/1/1
f 57/1/1 55/1/1 56/1/1
f 59/3/1 58/3/1 57/3/1
f 60/3/1 58/3/1 59/3/1
f 65/4/1 62/4/1 61/4/1
f 66/4/1 62/4/1 65/4/1
f 67/4/1 64/4/1 63/4/1
f 68/4/1 64/4/1 67/4/1
f 71/1/1 70/1/1 69/1/1
f 72/1/1 70/1/1 71/1/1
f 73/4/2 74/4/2 77/4/2
f 77/4/2 74/4/2 78/4/2
f 75/4/2 76/4/2 79/4/2
f 79/4/2 76/4/2 80/4/2
f 81/1/2 82/1/2 83/1/2
f 83/1/2 82/1/2 84/1/2
f 85/1/2 86/1/2 87/1/2
f 87/1/2 86/1/2 88/1/2
f 88/3/2 89/3/2 90/3/2
f 90/3/2 89/3/2 91/3/2
f 92/2/2 93/2/2 94/2/2
f 94/2/2 93/2/2 95/2/2
f 96/2/2 97/2/2 98/2/2
f 98/2/2 97/2/2 99/2/2
f 100/1/2 101/1/2 102/1/2
f 102/1/2 101/1/2 103/1/2
f 104/1/2 105/1/2 106/1/2
f 106/1/2 105/1/2 107/1/2
f 107/3/2 108/3/2 111/3/2
f 111/3/2 108/3/2 112/3/2
f 109/3/2 110/3/2 113/3/2
f 113/3/2 110/3/2 114/3/2
f 115/4/2 116/4/2 119/4/2
f 119/4/2 116/4/2 120/4/2
f 117/4/2 118/4/2 121/4/2
f 121/4/2 118/4/2 122/4/2
f 119/1/2 120/1/2 123/1/2
f 120/1/2 121/1/2 123/1/2
f 121/1/2 122/1/2 123/1/2
f 123/1/2 122/1/2 124/1/2
f 124/1/2 122/1/2 125/1/2
f 125/1/2 122/1/2 126/1/2
f 123/3/2 124/3/2 127/3/2
f 125/3/2 126/3/2 128/3/2
f 123/3/2 127/3/2 129/3/2
f 127/3/2 128/3/2 129/3/2
f 128/3/2 126/3/2 130/3/2
f 129/3/2 128/3/2 130/3/2
f 123/3/2 129/3/2 131/3/2
f 131/3/2 129/3/2 132/3/2
f 130/3/2 126/3/2 133/3/2
f 133/3/2 126/3/2 134/3/2
f 132/3/2 133/3/2 135/3/2
f 135/3/2 133/3/2 136/3/2
f 137/1/2 138/1/2 139/1/2
f 139/1/2 138/1/2 140/1/2
f 141/1/2 142/1/2 143/1/2
f 143/1/2 142/1/2 144/1/2
f 149/2/3 146/2/3 145/2/3
f 150/2/3 146/2/3 149/2/3
f 151/2/3 148/2/3 147/2/3
f 152/2/3 148/2/3 151/2/3
f 157/1/3 154/1/3 153/1/3
f 158/1/3 154/1/3 157/1/3
f 159/1/3 154/1/3 158/1/3
f 160/1/3 154/1/3 159/1/3
f 161/1/3 156/1/3 155/1/3
f 162/1/3 156/1/3 161/1/3
f 163/1/3 159/1/3 158/1/3
f 164/1/3 159/1/3 163/1/3
f 165/1/3 157/1/3 153/1/3
f 166/1/3 163/1/3 158/1/3
f 167/1/3 161/1/3 155/1/3
f 168/1/3 156/1/3 162/1/3
f 169/1/3 166/1/3 165/1/3
f 169/1/3 163/1/3 166/1/3
f 171/1/3 170/1/3 169/1/3
f 173/1/3 165/1/3 153/1/3
f 173/1/3 172/1/3 171/1/3
f 173/1/3 171/1/3 169/1/3
f 173/1/3 169/1/3 165/1/3
f 174/1/3 172/1/3 173/1/3
f 175/1/3 167/1/3 155/1/3
f 175/1/3 168/1/3 167/1/3
f 176/1/3 156/1/3 168/1/3
f 176/1/3 168/1/3 175/1/3
f 181/3/3 180/3/3 179/3/3
f 182/3/3 180/3/3 181/3/3
f 183/3/3 180/3/3 182/3/3
f 184/3/3 180/3/3 183/3/3
f 186/4/3 178/4/3 177/4/3
f 187/1/3 179/1/3 178/1/3
f 187/4/3 178/4/3 186/4/3
f 189/3/3 183/3/3 182/3/3
f 191/3/3 189/3/3 188/3/3
f 192/3/3 183/3/3 189/3/3
f 192/3/3 189/3/3 191/3/3
f 193/3/3 191/3/3 190/3/3
f 194/3/3 191/3/3 193/3/3
f 195/3/3 183/3/3 192/3/3
f 197/1/3 179/1/3 187/1/3
f 198/3/3 195/3/3 194/3/3
f 199/3/3 183/3/3 195/3/3
f 199/3/3 195/3/3 198/3/3
f 200/3/3 181/3/3 179/3/3
f 201/3/3 183/3/3 199/3/3
f 202/3/3 183/3/3 201/3/3
f 203/3/3 185/3/3 184/3/3
f 204/3/3 185/3/3 203/3/3
f 205/4/3 197/4/3 196/4/3
f 206/1/3 179/1/3 197/1/3
f 206/4/3 197/4/3 205/4/3
f 207/3/3 202/3/3 201/3/3
f 207/1/3 179/1/3 206/1/3
f 207/3/3 200/3/3 179/3/3
f 207/3/3 203/3/3 202/3/3
f 207/3/3 201/3/3 200/3/3
f 208/3/3 203/3/3 207/3/3
f 213/1/3 210/1/3 209/1/3
f 214/1/3 210/1/3 213/1/3
f 215/1/3 212/1/3 211/1/3
f 216/1/3 212/1/3 215/1/3
f 218/3/3 217/3/3 216/3/3
f 219/3/3 217/3/3 218/3/3
f 222/1/3 221/1/3 220/1/3
f 223/1/3 221/1/3 222/1/3
f 229/3/3 225/3/3 224/3/3
f 230/3/3 225/3/3 229/3/3
f 231/1/3 227/1/3 226/1/3
f 232/1/3 227/1/3 231/1/3
f 233/1/3 229/1/3 228/1/3
f 234/1/3 229/1/3 233/1/3
f 237/4/3 236/4/3 235/4/3
f 238/4/3 236/4/3 237/4/3
f 241/4/3 240/4/3 239/4/3
f 242/4/3 240/4/3 241/4/3
f 243/4/4 244/4/4 245/4/4
f 245/4/4 244/4/4 246/4/4
f 247/4/4 248/4/4 249/4/4
f 249/4/4 248/4/4 250/4/4
f 251/1/4 252/1/4 255/1/4
f 255/1/4 252/1/4 256/1/4
f 253/1/4 254/1/4 257/1/4
f 257/1/4 254/1/4 258/1/4
f 258/3/4 259/3/4 260/3/4
f 260/3/4 259/3/4 261/3/4
f 262/3/4 263/3/4 267/3/4
f 267/3/4 263/3/4 268/3/4
f 264/1/4 265/1/4 269/1/4
f 269/1/4 265/1/4 270/1/4
f 266/1/4 267/1/4 271/1/4
f 271/1/4 267/1/4 272/1/4
f 274/1/4 275/1/4 277/1/4
f 275/3/4 276/3/4 277/3/4
f 277/3/4 276/3/4 278/3/4
f 273/4/4 274/4/4 280/4/4
f 274/1/4 277/1/4 281/1/4
f 280/4/4 274/4/4 281/4/4
f 277/1/4 278/1/4 281/1/4
f 281/1/4 278/1/4 283/1/4
f 283/1/4 278/1/4 284/1/4
f 278/3/4 279/3/4 285/3/4
f 284/1/4 278/1/4 285/1/4
f 285/3/4 279/3/4 286/3/4
f 282/4/4 283/4/4 287/4/4
f 283/1/4 284/1/4 288/1/4
f 287/4/4 283/4/4 288/4/4
f 284/3/4 285/3/4 289/3/4
f 288/1/4 284/1/4 289/1/4
f 289/3/4 285/3/4 290/3/4
f 295/4/5 292/4/5 291/4/5
f 296/4/5 292/4/5 295/4/5
f 297/4/5 294/4/5 293/4/5
f 298/4/5 294/4/5 297/4/5
f 303/4/5 300/4/5 299/4/5
f 304/4/5 300/4/5 303/4/5
f 305/4/5 302/4/5 301/4/5
f 306/4/5 302/4/5 305/4/5
f 310/1/5 308/1/5 307/1/5
f 311/1/5 308/1/5 310/1/5
f 313/1/5 310/1/5 309/1/5
f 313/1/5 312/1/5 311/1/5
f 313/1/5 311/1/5 310/1/5
f 314/1/5 312/1/5 313/1/5
f 315/1/5 312/1/5 314/1/5
f 316/1/5 312/1/5 315/1/5
f 317/1/5 315/1/5 314/1/5
f 318/1/5 315/1/5 317/1/5
f 323/1/5 320/1/5 319/1/5
f 324/1/5 320/1/5 323/1/5
f 325/1/5 322/1/5 321/1/5
f 326/1/5 322/1/5 325/1/5
f 329/1/5 328/1/5 327/1/5
f 330/1/5 328/1/5 329/1/5
f 333/2/5 332/2/5 331/2/5
f 334/2/5 332/2/5 333/2/5
f 337/3/5 336/3/5 335/3/5
f 338/3/5 336/3/5 337/3/5
f 341/1/5 340/1/5 339/1/5
f 342/1/5 340/1/5 341/1/5
f 347/1/5 344/1/5 343/1/5
f 348/1/5 344/1/5 347/1/5
f 349/1/5 346/1/5 345/1/5
f 350/1/5 346/1/5 349/1/5
f 353/2/5 352/2/5 351/2/5
f 354/2/5 352/2/5 353/2/5
f 355/2/6 356/2/6 357/2/6
f 357/2/6 356/2/6 358/2/6
f 359/1/6 360/1/6 361/1/6
f 361/1/6 360/1/6 362/1/6
f 363/1/6 364/1/6 367/1/6
f 367/1/6 364/1/6 368/1/6
f 365/1/6 366/1/6 369/1/6
f 369/1/6 366/1/6 370/1/6
f 368/3/6 369/3/6 371/3/6
f 371/3/6 369/3/6 372/3/6
f 373/1/6 374/1/6 377/1/6
f 377/1/6 374/1/6 378/1/6
f 375/1/6 376/1/6 379/1/6
f 379/1/6 376/1/6 380/1/6
f 381/1/6 382/1/6 385/1/6
f 385/1/6 382/1/6 386/1/6
f 383/1/6 384/1/6 387/1/6
f 387/1/6 384/1/6 388/1/6
f 389/2/6 390/2/6 391/2/6
f 391/2/6 390/2/6 392/2/6
f 393/1/6 394/1/6 396/1/6
f 396/1/6 394/1/6 397/1/6
f 395/3/6 396/3/6 400/3/6
f 400/3/6 396/3/6 401/3/6
f 397/3/6 398/3/6 402/3/6
f 402/3/6 398/3/6 403/3/6
f 399/1/6 400/1/6 405/1/6
f 405/1/6 400/1/6 406/1/6
f 403/1/6 404/1/6 409/1/6
f 409/1/6 404/1/6 410/1/6
f 406/3/6 407/3/6 411/3/6
f 411/3/6 407/3/6 412/3/6
f 408/3/6 409/3/6 413/3/6
f 413/3/6 409/3/6 414/3/6
f 415/3/6 416/3/6 418/3/6
f 418/3/6 416/3/6 419/3/6
f 417/3/6 418/3/6 421/3/6
f 418/1/6 419/1/6 422/1/6
f 421/3/6 418/3/6 422/3/6
f 419/3/6 420/3/6 423/3/6
f 422/1/6 419/1/6 423/1/6
f 423/3/6 420/3/6 424/3/6
f 422/3/6 423/3/6 425/3/6
f 425/3/6 423/3/6 426/3/6
