# MagicaVoxel @ Ephtracy

# group
o 

# material
mtllib clothes-0.mtl
usemtl palette

# normals
vn -1 0 0
vn 1 0 0
vn 0 0 1
vn 0 0 -1
vn 0 -1 0
vn 0 1 0

# texcoords
vt 0.00585938 0.5
vt 0.962891 0.5

# verts
v 1.9 0 -0.2
v 1.9 0 -0.3
v 1.9 0 -0.4
v 1.9 9 -0.2
v 1.9 9 -0.3
v 1.9 9 -0.4
v 2.1 4.2 0
v 2.1 4.2 -0.2
v 2.1 4.3 -0.1
v 2.1 4.3 -0.2
v 2.1 4.7 -0.1
v 2.1 4.7 -0.2
v 2.1 4.8 0
v 2.1 4.8 -0.2
v 2.2 4.2 0
v 2.2 4.2 -0.2
v 2.2 4.3 -0.1
v 2.2 4.3 -0.2
v 2.2 4.7 -0.1
v 2.2 4.7 -0.2
v 2.2 4.8 0
v 2.2 4.8 -0.2
v 4.9 0 -0.2
v 4.9 0 -0.4
v 4.9 9 -0.2
v 4.9 9 -0.4
v 2.1 4.2 0
v 2.1 4.8 0
v 2.2 4.2 0
v 2.2 4.8 0
v 1.9 0 -0.2
v 1.9 9 -0.2
v 2 0 -0.2
v 2 9 -0.2
v 2.1 4.2 -0.2
v 2.1 4.3 -0.2
v 2.1 4.7 -0.2
v 2.1 4.8 -0.2
v 2.2 4.2 -0.2
v 2.2 4.3 -0.2
v 2.2 4.7 -0.2
v 2.2 4.8 -0.2
v 4.9 0 -0.2
v 4.9 9 -0.2
v 2.1 4.3 -0.1
v 2.1 4.7 -0.1
v 2.2 4.3 -0.1
v 2.2 4.7 -0.1
v 1.9 0 -0.4
v 1.9 9 -0.4
v 4.9 0 -0.4
v 4.9 9 -0.4
v 1.9 0 -0.2
v 2 0 -0.2
v 4.9 0 -0.2
v 1.9 0 -0.3
v 2 0 -0.3
v 1.9 0 -0.4
v 4.9 0 -0.4
v 2.1 4.2 0
v 2.2 4.2 0
v 2.1 4.2 -0.2
v 2.2 4.2 -0.2
v 2.1 4.7 -0.1
v 2.2 4.7 -0.1
v 2.1 4.7 -0.2
v 2.2 4.7 -0.2
v 2.1 4.3 -0.1
v 2.2 4.3 -0.1
v 2.1 4.3 -0.2
v 2.2 4.3 -0.2
v 2.1 4.8 0
v 2.2 4.8 0
v 2.1 4.8 -0.2
v 2.2 4.8 -0.2
v 1.9 9 -0.2
v 2 9 -0.2
v 4.9 9 -0.2
v 1.9 9 -0.3
v 2 9 -0.3
v 1.9 9 -0.4
v 4.9 9 -0.4

# faces
f 4/1/1 2/1/1 1/1/1
f 5/2/1 3/2/1 2/2/1
f 5/1/1 2/1/1 4/1/1
f 6/2/1 3/2/1 5/2/1
f 9/1/1 8/1/1 7/1/1
f 10/1/1 8/1/1 9/1/1
f 11/1/1 9/1/1 7/1/1
f 13/1/1 11/1/1 7/1/1
f 13/1/1 12/1/1 11/1/1
f 14/1/1 12/1/1 13/1/1
f 15/1/2 16/1/2 17/1/2
f 17/1/2 16/1/2 18/1/2
f 15/1/2 17/1/2 19/1/2
f 15/1/2 19/1/2 21/1/2
f 19/1/2 20/1/2 21/1/2
f 21/1/2 20/1/2 22/1/2
f 23/2/2 24/2/2 25/2/2
f 25/2/2 24/2/2 26/2/2
f 29/1/3 28/1/3 27/1/3
f 30/1/3 28/1/3 29/1/3
f 33/1/3 32/1/3 31/1/3
f 34/1/3 32/1/3 33/1/3
f 35/2/3 34/2/3 33/2/3
f 36/2/3 34/2/3 35/2/3
f 37/2/3 34/2/3 36/2/3
f 38/2/3 34/2/3 37/2/3
f 39/2/3 35/2/3 33/2/3
f 40/2/3 37/2/3 36/2/3
f 41/2/3 37/2/3 40/2/3
f 42/2/3 34/2/3 38/2/3
f 43/2/3 41/2/3 40/2/3
f 43/2/3 42/2/3 41/2/3
f 43/2/3 39/2/3 33/2/3
f 43/2/3 40/2/3 39/2/3
f 44/2/3 34/2/3 42/2/3
f 44/2/3 42/2/3 43/2/3
f 45/1/4 46/1/4 47/1/4
f 47/1/4 46/1/4 48/1/4
f 49/2/4 50/2/4 51/2/4
f 51/2/4 50/2/4 52/2/4
f 56/1/5 54/1/5 53/1/5
f 57/2/5 55/2/5 54/2/5
f 57/1/5 54/1/5 56/1/5
f 58/2/5 57/2/5 56/2/5
f 59/2/5 55/2/5 57/2/5
f 59/2/5 57/2/5 58/2/5
f 62/1/5 61/1/5 60/1/5
f 63/1/5 61/1/5 62/1/5
f 66/1/5 65/1/5 64/1/5
f 67/1/5 65/1/5 66/1/5
f 68/1/6 69/1/6 70/1/6
f 70/1/6 69/1/6 71/1/6
f 72/1/6 73/1/6 74/1/6
f 74/1/6 73/1/6 75/1/6
f 76/1/6 77/1/6 79/1/6
f 77/2/6 78/2/6 80/2/6
f 79/1/6 77/1/6 80/1/6
f 79/2/6 80/2/6 81/2/6
f 80/2/6 78/2/6 82/2/6
f 81/2/6 80/2/6 82/2/6
