# MagicaVoxel @ Ephtracy

# group
o 

# material
mtllib clothes-2.mtl
usemtl palette

# normals
vn -1 0 0
vn 1 0 0
vn 0 0 1
vn 0 0 -1
vn 0 -1 0
vn 0 1 0

# texcoords
vt 0.146484 0.5
vt 0.958984 0.5
vt 0.962891 0.5

# verts
v -3 0 -0.4
v -3 0 -3
v -3 9 -0.4
v -3 9 -3
v 2.9 0 -0.4
v 2.9 0 -2.9
v 2.9 0.1 -0.4
v 2.9 0.1 -2.9
v 2.9 3.8 -2.4
v 2.9 3.8 -2.6
v 2.9 3.9 -2.5
v 2.9 3.9 -2.6
v 2.9 4.1 -2.4
v 2.9 4.1 -2.5
v 2.9 4.1 -2.6
v 2.9 4.4 -0.4
v 2.9 4.4 -2.8
v 2.9 4.4 -2.9
v 2.9 4.5 -0.4
v 2.9 4.5 -2.8
v 2.9 4.5 -2.9
v 2.9 8.1 -0.4
v 2.9 8.1 -2.9
v 2.9 8.4 -2
v 2.9 8.4 -2.4
v 2.9 8.5 -2.3
v 2.9 8.5 -2.4
v 2.9 8.5 -2.5
v 2.9 8.7 -2
v 2.9 8.7 -2.3
v 2.9 8.7 -2.4
v 2.9 8.7 -2.5
v 2.9 8.9 -0.4
v 2.9 8.9 -2.9
v -2.9 0 -0.4
v -2.9 0 -2.9
v -2.9 3.9 -2.5
v -2.9 3.9 -2.6
v -2.9 4.1 -2.5
v -2.9 4.1 -2.6
v -2.9 4.4 -0.4
v -2.9 4.4 -2.9
v -2.9 4.5 -0.4
v -2.9 4.5 -2.9
v -2.9 8.5 -2.3
v -2.9 8.5 -2.4
v -2.9 8.5 -2.5
v -2.9 8.7 -2.3
v -2.9 8.7 -2.4
v -2.9 8.7 -2.5
v -2.9 8.9 -0.4
v -2.9 8.9 -2.9
v 3 0 -0.4
v 3 0 -3
v 3 0.1 -0.4
v 3 0.1 -2.9
v 3 3.8 -2.4
v 3 3.8 -2.6
v 3 4.1 -2.4
v 3 4.1 -2.6
v 3 8.1 -0.4
v 3 8.1 -2.9
v 3 8.4 -2
v 3 8.4 -2.4
v 3 8.7 -2
v 3 8.7 -2.4
v 3 9 -0.4
v 3 9 -3
v -3 0 -0.4
v -3 9 -0.4
v -2.9 0 -0.4
v -2.9 4.4 -0.4
v -2.9 4.5 -0.4
v -2.9 8.9 -0.4
v 2.9 0 -0.4
v 2.9 0.1 -0.4
v 2.9 4.4 -0.4
v 2.9 4.5 -0.4
v 2.9 8.1 -0.4
v 2.9 8.9 -0.4
v 3 0 -0.4
v 3 0.1 -0.4
v 3 8.1 -0.4
v 3 9 -0.4
v -2.9 8.5 -2.3
v -2.9 8.7 -2.3
v 2.9 8.5 -2.3
v 2.9 8.7 -2.3
v -2.9 3.9 -2.5
v -2.9 4.1 -2.5
v -2.8 3.9 -2.5
v -2.8 4.1 -2.5
v 2.9 3.9 -2.5
v 2.9 4.1 -2.5
v -2.9 0 -2.9
v -2.9 4.4 -2.9
v -2.9 4.5 -2.9
v -2.9 8.9 -2.9
v 2.8 4.4 -2.9
v 2.8 4.5 -2.9
v 2.9 0 -2.9
v 2.9 0.1 -2.9
v 2.9 4.4 -2.9
v 2.9 4.5 -2.9
v 2.9 8.1 -2.9
v 2.9 8.9 -2.9
v -2.9 8.5 -2.5
v -2.9 8.7 -2.5
v 2.9 8.5 -2.5
v 2.9 8.7 -2.5
v -2.9 3.9 -2.6
v -2.9 4.1 -2.6
v -2.8 3.9 -2.6
v -2.8 4.1 -2.6
v 2.9 3.9 -2.6
v 2.9 4.1 -2.6
v -3 0 -3
v -3 9 -3
v 3 0 -3
v 3 9 -3
v -3 0 -0.4
v -2.9 0 -0.4
v 2.9 0 -0.4
v 3 0 -0.4
v -2.9 0 -2.9
v 2.9 0 -2.9
v -3 0 -3
v 3 0 -3
v -2.9 3.9 -2.5
v -2.8 3.9 -2.5
v 2.9 3.9 -2.5
v -2.9 3.9 -2.6
v -2.8 3.9 -2.6
v 2.9 3.9 -2.6
v -2.9 4.4 -0.4
v 2.9 4.4 -0.4
v 2.8 4.4 -2.8
v 2.9 4.4 -2.8
v -2.9 4.4 -2.9
v 2.8 4.4 -2.9
v 2.9 4.4 -2.9
v -2.9 8.5 -2.3
v 2.9 8.5 -2.3
v -2.9 8.5 -2.4
v 2.9 8.5 -2.4
v -2.9 8.5 -2.5
v 2.9 8.5 -2.5
v -2.9 8.9 -0.4
v 2.9 8.9 -0.4
v -2.9 8.9 -2.9
v 2.9 8.9 -2.9
v -2.9 4.1 -2.5
v -2.8 4.1 -2.5
v 2.9 4.1 -2.5
v -2.9 4.1 -2.6
v -2.8 4.1 -2.6
v 2.9 4.1 -2.6
v -2.9 4.5 -0.4
v 2.9 4.5 -0.4
v 2.8 4.5 -2.8
v 2.9 4.5 -2.8
v -2.9 4.5 -2.9
v 2.8 4.5 -2.9
v 2.9 4.5 -2.9
v -2.9 8.7 -2.3
v 2.9 8.7 -2.3
v -2.9 8.7 -2.4
v 2.9 8.7 -2.4
v -2.9 8.7 -2.5
v 2.9 8.7 -2.5
v -3 9 -0.4
v 3 9 -0.4
v -3 9 -3
v 3 9 -3

# faces
f 3/3/1 2/3/1 1/3/1
f 4/3/1 2/3/1 3/3/1
f 7/3/1 6/3/1 5/3/1
f 8/3/1 6/3/1 7/3/1
f 9/2/1 8/2/1 7/2/1
f 10/2/1 8/2/1 9/2/1
f 11/1/1 10/1/1 9/1/1
f 12/2/1 8/2/1 10/2/1
f 12/1/1 10/1/1 11/1/1
f 13/2/1 9/2/1 7/2/1
f 13/1/1 11/1/1 9/1/1
f 14/1/1 11/1/1 13/1/1
f 15/2/1 8/2/1 12/2/1
f 16/2/1 14/2/1 13/2/1
f 16/2/1 15/2/1 14/2/1
f 16/2/1 13/2/1 7/2/1
f 17/2/1 8/2/1 15/2/1
f 17/2/1 15/2/1 16/2/1
f 18/2/1 8/2/1 17/2/1
f 22/2/1 20/2/1 19/2/1
f 22/2/1 21/2/1 20/2/1
f 23/2/1 21/2/1 22/2/1
f 24/3/1 23/3/1 22/3/1
f 25/3/1 23/3/1 24/3/1
f 26/2/1 25/2/1 24/2/1
f 27/3/1 23/3/1 25/3/1
f 27/2/1 25/2/1 26/2/1
f 28/3/1 23/3/1 27/3/1
f 29/3/1 24/3/1 22/3/1
f 29/2/1 26/2/1 24/2/1
f 30/2/1 26/2/1 29/2/1
f 32/3/1 23/3/1 28/3/1
f 33/3/1 31/3/1 30/3/1
f 33/3/1 32/3/1 31/3/1
f 33/3/1 29/3/1 22/3/1
f 33/3/1 30/3/1 29/3/1
f 34/3/1 23/3/1 32/3/1
f 34/3/1 32/3/1 33/3/1
f 35/3/2 36/3/2 37/3/2
f 37/3/2 36/3/2 38/3/2
f 35/3/2 37/3/2 39/3/2
f 38/3/2 36/3/2 40/3/2
f 35/3/2 39/3/2 41/3/2
f 39/3/2 40/3/2 41/3/2
f 40/3/2 36/3/2 42/3/2
f 41/3/2 40/3/2 42/3/2
f 43/3/2 44/3/2 45/3/2
f 45/3/2 44/3/2 46/3/2
f 46/3/2 44/3/2 47/3/2
f 43/3/2 45/3/2 48/3/2
f 47/3/2 44/3/2 50/3/2
f 48/3/2 49/3/2 51/3/2
f 49/3/2 50/3/2 51/3/2
f 43/3/2 48/3/2 51/3/2
f 50/3/2 44/3/2 52/3/2
f 51/3/2 50/3/2 52/3/2
f 53/3/2 54/3/2 55/3/2
f 55/3/2 54/3/2 56/3/2
f 55/2/2 56/2/2 57/2/2
f 57/2/2 56/2/2 58/2/2
f 55/2/2 57/2/2 59/2/2
f 57/1/2 58/1/2 59/1/2
f 58/2/2 56/2/2 60/2/2
f 59/1/2 58/1/2 60/1/2
f 55/2/2 59/2/2 61/2/2
f 59/2/2 60/2/2 61/2/2
f 56/3/2 54/3/2 62/3/2
f 61/2/2 60/2/2 62/2/2
f 60/2/2 56/2/2 62/2/2
f 61/3/2 62/3/2 63/3/2
f 63/3/2 62/3/2 64/3/2
f 61/3/2 63/3/2 65/3/2
f 63/2/2 64/2/2 65/2/2
f 64/3/2 62/3/2 66/3/2
f 65/2/2 64/2/2 66/2/2
f 61/3/2 65/3/2 67/3/2
f 65/3/2 66/3/2 67/3/2
f 62/3/2 54/3/2 68/3/2
f 67/3/2 66/3/2 68/3/2
f 66/3/2 62/3/2 68/3/2
f 71/3/3 70/3/3 69/3/3
f 72/3/3 70/3/3 71/3/3
f 73/3/3 70/3/3 72/3/3
f 74/3/3 70/3/3 73/3/3
f 77/3/3 73/3/3 72/3/3
f 78/3/3 73/3/3 77/3/3
f 80/3/3 70/3/3 74/3/3
f 81/3/3 76/3/3 75/3/3
f 82/2/3 79/2/3 78/2/3
f 82/3/3 76/3/3 81/3/3
f 82/2/3 77/2/3 76/2/3
f 82/2/3 78/2/3 77/2/3
f 83/3/3 80/3/3 79/3/3
f 83/2/3 79/2/3 82/2/3
f 84/3/3 70/3/3 80/3/3
f 84/3/3 80/3/3 83/3/3
f 87/1/3 86/1/3 85/1/3
f 88/1/3 86/1/3 87/1/3
f 91/2/3 90/2/3 89/2/3
f 92/2/3 90/2/3 91/2/3
f 93/1/3 92/1/3 91/1/3
f 94/1/3 92/1/3 93/1/3
f 99/3/3 96/3/3 95/3/3
f 100/3/3 98/3/3 97/3/3
f 101/3/3 99/3/3 95/3/3
f 102/3/3 99/3/3 101/3/3
f 103/3/3 99/3/3 102/3/3
f 104/3/3 98/3/3 100/3/3
f 105/3/3 98/3/3 104/3/3
f 106/3/3 98/3/3 105/3/3
f 107/3/4 108/3/4 109/3/4
f 109/3/4 108/3/4 110/3/4
f 111/2/4 112/2/4 113/2/4
f 113/2/4 112/2/4 114/2/4
f 113/1/4 114/1/4 115/1/4
f 115/1/4 114/1/4 116/1/4
f 117/3/4 118/3/4 119/3/4
f 119/3/4 118/3/4 120/3/4
f 125/3/5 122/3/5 121/3/5
f 126/3/5 124/3/5 123/3/5
f 127/3/5 125/3/5 121/3/5
f 127/3/5 126/3/5 125/3/5
f 128/3/5 124/3/5 126/3/5
f 128/3/5 126/3/5 127/3/5
f 132/2/5 130/2/5 129/2/5
f 133/1/5 131/1/5 130/1/5
f 133/2/5 130/2/5 132/2/5
f 134/1/5 131/1/5 133/1/5
f 137/3/5 136/3/5 135/3/5
f 138/3/5 136/3/5 137/3/5
f 139/3/5 137/3/5 135/3/5
f 140/2/5 138/2/5 137/2/5
f 140/3/5 137/3/5 139/3/5
f 141/2/5 138/2/5 140/2/5
f 144/1/5 143/1/5 142/1/5
f 145/1/5 143/1/5 144/1/5
f 146/3/5 145/3/5 144/3/5
f 147/3/5 145/3/5 146/3/5
f 150/3/5 149/3/5 148/3/5
f 151/3/5 149/3/5 150/3/5
f 152/2/6 153/2/6 155/2/6
f 153/1/6 154/1/6 156/1/6
f 155/2/6 153/2/6 156/2/6
f 156/1/6 154/1/6 157/1/6
f 158/3/6 159/3/6 160/3/6
f 160/3/6 159/3/6 161/3/6
f 158/3/6 160/3/6 162/3/6
f 160/2/6 161/2/6 163/2/6
f 162/3/6 160/3/6 163/3/6
f 163/2/6 161/2/6 164/2/6
f 165/1/6 166/1/6 167/1/6
f 167/1/6 166/1/6 168/1/6
f 167/3/6 168/3/6 169/3/6
f 169/3/6 168/3/6 170/3/6
f 171/3/6 172/3/6 173/3/6
f 173/3/6 172/3/6 174/3/6
