# MagicaVoxel @ Ephtracy

# group
o 

# material
mtllib clothes-1.mtl
usemtl palette

# normals
vn -1 0 0
vn 1 0 0
vn 0 0 1
vn 0 0 -1
vn 0 -1 0
vn 0 1 0

# texcoords
vt 0.00585938 0.5
vt 0.958984 0.5
vt 0.962891 0.5

# verts
v -4.5 0 -0.3
v -4.5 0 -0.5
v -4.5 9 -0.3
v -4.5 9 -0.5
v -1.8 4.2 -0.1
v -1.8 4.2 -0.3
v -1.8 4.3 -0.2
v -1.8 4.3 -0.3
v -1.8 4.7 -0.2
v -1.8 4.7 -0.3
v -1.8 4.8 -0.1
v -1.8 4.8 -0.3
v -1.7 4.2 -0.1
v -1.7 4.2 -0.3
v -1.7 4.3 -0.2
v -1.7 4.3 -0.3
v -1.7 4.7 -0.2
v -1.7 4.7 -0.3
v -1.7 4.8 -0.1
v -1.7 4.8 -0.3
v -1.5 0 -0.3
v -1.5 0 -0.5
v -1.5 9 -0.3
v -1.5 9 -0.5
v -1.8 4.2 -0.1
v -1.8 4.8 -0.1
v -1.7 4.2 -0.1
v -1.7 4.8 -0.1
v -4.5 0 -0.3
v -4.5 9 -0.3
v -1.8 4.2 -0.3
v -1.8 4.3 -0.3
v -1.8 4.7 -0.3
v -1.8 4.8 -0.3
v -1.7 4.2 -0.3
v -1.7 4.3 -0.3
v -1.7 4.7 -0.3
v -1.7 4.8 -0.3
v -1.6 0 -0.3
v -1.6 9 -0.3
v -1.5 0 -0.3
v -1.5 9 -0.3
v -1.8 4.3 -0.2
v -1.8 4.7 -0.2
v -1.7 4.3 -0.2
v -1.7 4.7 -0.2
v -4.5 0 -0.5
v -4.5 9 -0.5
v -1.8 4.7 -0.5
v -1.8 4.8 -0.5
v -1.7 4.7 -0.5
v -1.7 4.8 -0.5
v -1.6 0 -0.5
v -1.6 9 -0.5
v -1.5 0 -0.5
v -1.5 9 -0.5
v -4.5 0 -0.3
v -1.6 0 -0.3
v -1.5 0 -0.3
v -4.5 0 -0.5
v -1.6 0 -0.5
v -1.5 0 -0.5
v -1.8 4.2 -0.1
v -1.7 4.2 -0.1
v -1.8 4.2 -0.3
v -1.7 4.2 -0.3
v -1.8 4.7 -0.2
v -1.7 4.7 -0.2
v -1.8 4.7 -0.3
v -1.7 4.7 -0.3
v -1.8 4.3 -0.2
v -1.7 4.3 -0.2
v -1.8 4.3 -0.3
v -1.7 4.3 -0.3
v -1.8 4.8 -0.1
v -1.7 4.8 -0.1
v -1.8 4.8 -0.3
v -1.7 4.8 -0.3
v -4.5 9 -0.3
v -1.6 9 -0.3
v -1.5 9 -0.3
v -4.5 9 -0.5
v -1.6 9 -0.5
v -1.5 9 -0.5

# faces
f 3/3/1 2/3/1 1/3/1
f 4/3/1 2/3/1 3/3/1
f 7/1/1 6/1/1 5/1/1
f 8/1/1 6/1/1 7/1/1
f 9/1/1 7/1/1 5/1/1
f 11/1/1 9/1/1 5/1/1
f 11/1/1 10/1/1 9/1/1
f 12/1/1 10/1/1 11/1/1
f 13/1/2 14/1/2 15/1/2
f 15/1/2 14/1/2 16/1/2
f 13/1/2 15/1/2 17/1/2
f 13/1/2 17/1/2 19/1/2
f 17/1/2 18/1/2 19/1/2
f 19/1/2 18/1/2 20/1/2
f 21/1/2 22/1/2 23/1/2
f 23/1/2 22/1/2 24/1/2
f 27/1/3 26/1/3 25/1/3
f 28/1/3 26/1/3 27/1/3
f 31/3/3 30/3/3 29/3/3
f 32/3/3 30/3/3 31/3/3
f 33/3/3 30/3/3 32/3/3
f 34/3/3 30/3/3 33/3/3
f 35/3/3 31/3/3 29/3/3
f 36/3/3 33/3/3 32/3/3
f 37/3/3 33/3/3 36/3/3
f 38/3/3 30/3/3 34/3/3
f 39/3/3 37/3/3 36/3/3
f 39/3/3 38/3/3 37/3/3
f 39/3/3 35/3/3 29/3/3
f 39/3/3 36/3/3 35/3/3
f 40/3/3 30/3/3 38/3/3
f 40/3/3 38/3/3 39/3/3
f 41/1/3 40/1/3 39/1/3
f 42/1/3 40/1/3 41/1/3
f 43/1/4 44/1/4 45/1/4
f 45/1/4 44/1/4 46/1/4
f 47/3/4 48/3/4 49/3/4
f 49/3/4 48/3/4 50/3/4
f 47/3/4 49/3/4 51/3/4
f 49/2/4 50/2/4 51/2/4
f 50/3/4 48/3/4 52/3/4
f 51/2/4 50/2/4 52/2/4
f 47/3/4 51/3/4 53/3/4
f 51/3/4 52/3/4 53/3/4
f 52/3/4 48/3/4 54/3/4
f 53/3/4 52/3/4 54/3/4
f 53/1/4 54/1/4 55/1/4
f 55/1/4 54/1/4 56/1/4
f 60/3/5 58/3/5 57/3/5
f 61/1/5 59/1/5 58/1/5
f 61/3/5 58/3/5 60/3/5
f 62/1/5 59/1/5 61/1/5
f 65/1/5 64/1/5 63/1/5
f 66/1/5 64/1/5 65/1/5
f 69/1/5 68/1/5 67/1/5
f 70/1/5 68/1/5 69/1/5
f 71/1/6 72/1/6 73/1/6
f 73/1/6 72/1/6 74/1/6
f 75/1/6 76/1/6 77/1/6
f 77/1/6 76/1/6 78/1/6
f 79/3/6 80/3/6 82/3/6
f 80/1/6 81/1/6 83/1/6
f 82/3/6 80/3/6 83/3/6
f 83/1/6 81/1/6 84/1/6
